<svg xmlns="http://www.w3.org/2000/svg" version="1.1" xmlns:xlink="http://www.w3.org/1999/xlink" xmlns:svgjs="http://svgjs.dev/svgjs" width="1500" height="1500" viewBox="0 0 1500 1500"><rect width="1500" height="1500" fill="#000000"></rect><g transform="matrix(0.6666666666666666,0,0,0.6666666666666666,250.04792881541567,342.99649122807017)"><svg viewBox="0 0 303 247" data-background-color="#000000" preserveAspectRatio="xMidYMid meet" height="1222" width="1500" xmlns="http://www.w3.org/2000/svg" xmlns:xlink="http://www.w3.org/1999/xlink"><g id="tight-bounds" transform="matrix(1,0,0,1,-0.014522431070957964,-0.09999999999999432)"><svg viewBox="0 0 303.0290448621419 247.2" height="247.2" width="303.0290448621419"><g><svg viewBox="0 0 395.52 322.65073483130965" height="247.2" width="303.0290448621419"><g><svg viewBox="0 0 395.52 220.87706857842278" height="220.87706857842278" width="395.52"><g id="textblocktransform"><svg viewBox="0 0 395.52 220.87706857842278" height="220.87706857842278" width="395.52" id="textblock"><g><svg viewBox="0 0 395.52 220.87706857842278" height="220.87706857842278" width="395.52"><g transform="matrix(1,0,0,1,0,0)"><svg width="395.52" viewBox="3.0000000000000044 -35.01 139.63000000000002 74.49000000000001" height="220.87706857842278" data-palette-color="#ffffff"><svg></svg><svg></svg><g class="wordmark-text-0" data-fill-palette-color="primary" id="text-0"><path d="M23.71-32.01h-16.56v13.02h13.41v3h-13.41v15.99h-3.15v-35.01h19.71zM44.41-6.86v0c0 1.007-0.19 1.96-0.57 2.86-0.387 0.893-0.913 1.673-1.58 2.34-0.667 0.667-1.447 1.19-2.34 1.57-0.9 0.387-1.853 0.58-2.86 0.58v0h-2c-1.013 0-1.967-0.193-2.86-0.58-0.893-0.38-1.673-0.903-2.34-1.57-0.667-0.667-1.193-1.447-1.58-2.34-0.38-0.9-0.57-1.853-0.57-2.86v0-11.28c0-1.007 0.19-1.96 0.57-2.86 0.387-0.893 0.913-1.673 1.58-2.34 0.667-0.667 1.447-1.19 2.34-1.57 0.893-0.387 1.847-0.58 2.86-0.58v0h2c1.007 0 1.96 0.193 2.86 0.58 0.893 0.38 1.673 0.903 2.34 1.57 0.667 0.667 1.193 1.447 1.58 2.34 0.38 0.9 0.57 1.853 0.57 2.86v0zM41.41-6.69v-11.62c0-0.6-0.117-1.167-0.35-1.7-0.227-0.527-0.533-0.987-0.92-1.38-0.393-0.387-0.853-0.693-1.38-0.92-0.533-0.233-1.1-0.35-1.7-0.35v0h-2c-0.6 0-1.167 0.117-1.7 0.35-0.527 0.227-0.987 0.533-1.38 0.92-0.387 0.393-0.697 0.853-0.93 1.38-0.227 0.533-0.34 1.1-0.34 1.7v0 11.62c0 0.6 0.113 1.167 0.34 1.7 0.233 0.527 0.543 0.987 0.93 1.38 0.393 0.387 0.853 0.693 1.38 0.92 0.533 0.233 1.1 0.35 1.7 0.35v0h2c0.6 0 1.167-0.117 1.7-0.35 0.527-0.227 0.987-0.533 1.38-0.92 0.387-0.393 0.693-0.853 0.92-1.38 0.233-0.533 0.35-1.1 0.35-1.7zM60.77-22.14h-3.01c-0.6 0-1.163 0.113-1.69 0.34-0.533 0.227-0.993 0.537-1.38 0.93-0.393 0.387-0.703 0.847-0.93 1.38-0.227 0.527-0.34 1.09-0.34 1.69v0 17.8h-3v-25h1l1.63 2.54c0.687-0.927 1.547-1.663 2.58-2.21 1.033-0.547 2.16-0.82 3.38-0.82v0h1.76zM81.47-6.86v0c0 1.007-0.19 1.96-0.57 2.86-0.387 0.893-0.913 1.673-1.58 2.34-0.667 0.667-1.447 1.19-2.34 1.57-0.9 0.387-1.853 0.58-2.86 0.58v0h-2c-1.007 0-1.96-0.193-2.86-0.58-0.893-0.38-1.673-0.903-2.34-1.57-0.667-0.667-1.193-1.447-1.58-2.34-0.38-0.9-0.57-1.853-0.57-2.86v0-11.28c0-1.007 0.19-1.96 0.57-2.86 0.387-0.893 0.913-1.673 1.58-2.34 0.667-0.667 1.447-1.19 2.34-1.57 0.9-0.387 1.853-0.58 2.86-0.58v0h2c1.007 0 1.96 0.193 2.86 0.58 0.893 0.38 1.673 0.903 2.34 1.57 0.667 0.667 1.193 1.447 1.58 2.34 0.38 0.9 0.57 1.853 0.57 2.86v0 5.88h-13.7v5.57c0 0.6 0.117 1.167 0.35 1.7 0.227 0.527 0.533 0.987 0.92 1.38 0.393 0.387 0.853 0.693 1.38 0.92 0.533 0.233 1.1 0.35 1.7 0.35v0h2c0.6 0 1.167-0.117 1.7-0.35 0.527-0.227 0.987-0.533 1.38-0.92 0.387-0.393 0.697-0.853 0.93-1.38 0.227-0.533 0.34-1.1 0.34-1.7v0-1.66l3 0.49zM78.47-14.6v-3.71c0-0.6-0.113-1.167-0.34-1.7-0.233-0.527-0.543-0.987-0.93-1.38-0.393-0.387-0.853-0.693-1.38-0.92-0.533-0.233-1.1-0.35-1.7-0.35v0h-2c-0.6 0-1.167 0.117-1.7 0.35-0.527 0.227-0.987 0.533-1.38 0.92-0.387 0.393-0.693 0.853-0.92 1.38-0.233 0.533-0.35 1.1-0.35 1.7v0 3.71zM104.17-25l-8.86 25h-1.49l-8.86-25h3l6.52 18.95 0.1 1.29 0.1-1.29 6.49-18.95zM124.37-6.86v0c0 1.007-0.193 1.96-0.58 2.86-0.38 0.893-0.903 1.673-1.57 2.34-0.667 0.667-1.45 1.19-2.35 1.57-0.893 0.387-1.843 0.58-2.85 0.58v0h-2.01c-1.007 0-1.957-0.193-2.85-0.58-0.893-0.38-1.677-0.903-2.35-1.57-0.667-0.667-1.19-1.447-1.57-2.34-0.38-0.9-0.57-1.853-0.57-2.86v0-11.28c0-1.007 0.19-1.96 0.57-2.86 0.38-0.893 0.903-1.673 1.57-2.34 0.673-0.667 1.457-1.19 2.35-1.57 0.893-0.387 1.843-0.58 2.85-0.58v0h2.01c1.007 0 1.957 0.193 2.85 0.58 0.9 0.38 1.683 0.903 2.35 1.57 0.667 0.667 1.19 1.447 1.57 2.34 0.387 0.9 0.58 1.853 0.58 2.86v0 5.88h-13.7v5.57c0 0.6 0.113 1.167 0.34 1.7 0.227 0.527 0.537 0.987 0.93 1.38 0.387 0.387 0.847 0.693 1.38 0.92 0.527 0.233 1.09 0.35 1.69 0.35v0h2.01c0.6 0 1.163-0.117 1.69-0.35 0.533-0.227 0.993-0.533 1.38-0.92 0.393-0.393 0.703-0.853 0.93-1.38 0.227-0.533 0.34-1.1 0.34-1.7v0-1.66l3.01 0.49zM121.36-14.6v-3.71c0-0.6-0.113-1.167-0.34-1.7-0.227-0.527-0.537-0.987-0.93-1.38-0.387-0.387-0.847-0.693-1.38-0.92-0.527-0.233-1.09-0.35-1.69-0.35v0h-2.01c-0.6 0-1.163 0.117-1.69 0.35-0.533 0.227-0.993 0.533-1.38 0.92-0.393 0.393-0.703 0.853-0.93 1.38-0.227 0.533-0.34 1.1-0.34 1.7v0 3.71zM140.72-22.14h-3c-0.6 0-1.167 0.113-1.7 0.34-0.527 0.227-0.987 0.537-1.38 0.93-0.387 0.387-0.693 0.847-0.92 1.38-0.233 0.527-0.35 1.09-0.35 1.69v0 17.8h-3v-25h1l1.64 2.54c0.68-0.927 1.537-1.663 2.57-2.21 1.033-0.547 2.16-0.82 3.38-0.82v0h1.76z" fill="#ffffff" fill-rule="nonzero" stroke="none" stroke-width="1" stroke-linecap="butt" stroke-linejoin="miter" stroke-miterlimit="10" stroke-dasharray="" stroke-dashoffset="0" font-family="none" font-weight="none" font-size="none" text-anchor="none" style="mix-blend-mode: normal" data-fill-palette-color="primary" opacity="1"></path><path transform="translate(0,38.99)" d="M23.19-9.16v1.05c0 1.193-0.24 2.31-0.72 3.35-0.48 1.04-1.123 1.95-1.93 2.73-0.8 0.787-1.733 1.403-2.8 1.85-1.067 0.447-2.193 0.67-3.38 0.67v0h-2.52c-1.187 0-2.313-0.223-3.38-0.67-1.067-0.447-2.003-1.063-2.81-1.85-0.807-0.78-1.45-1.69-1.93-2.73-0.48-1.04-0.72-2.157-0.72-3.35v0-1.39l3.15-0.51v1.9c0 0.787 0.16 1.517 0.48 2.19 0.313 0.673 0.74 1.267 1.28 1.78 0.54 0.513 1.163 0.917 1.87 1.21 0.707 0.293 1.45 0.44 2.23 0.44v0h2.2c0.78 0 1.52-0.147 2.22-0.44 0.7-0.293 1.32-0.697 1.86-1.21 0.533-0.513 0.96-1.107 1.28-1.78 0.313-0.673 0.47-1.403 0.47-2.19v0-1.05c0-1.2-0.233-2.2-0.7-3-0.473-0.793-1.1-1.473-1.88-2.04-0.787-0.56-1.67-1.037-2.65-1.43-0.987-0.387-2-0.777-3.04-1.17-1.04-0.387-2.053-0.817-3.04-1.29-0.987-0.473-1.87-1.063-2.65-1.77-0.78-0.707-1.407-1.573-1.88-2.6-0.473-1.027-0.71-2.29-0.71-3.79v0-0.65c0-1.193 0.223-2.31 0.67-3.35 0.447-1.04 1.063-1.95 1.85-2.73 0.78-0.787 1.693-1.403 2.74-1.85 1.053-0.447 2.173-0.67 3.36-0.67v0h2.25c1.187 0 2.3 0.223 3.34 0.67 1.04 0.447 1.95 1.063 2.73 1.85 0.787 0.78 1.403 1.69 1.85 2.73 0.447 1.04 0.67 2.157 0.67 3.35v0 0.9l-3.15 0.51v-1.41c0-0.787-0.147-1.517-0.44-2.19-0.293-0.673-0.693-1.263-1.2-1.77-0.5-0.507-1.09-0.907-1.77-1.2-0.673-0.293-1.4-0.44-2.18-0.44v0h-1.95c-0.787 0-1.517 0.147-2.19 0.44-0.673 0.293-1.267 0.693-1.78 1.2-0.513 0.507-0.917 1.097-1.21 1.77-0.293 0.673-0.44 1.403-0.44 2.19v0 0.65c0 1.127 0.237 2.073 0.71 2.84 0.473 0.76 1.1 1.413 1.88 1.96 0.78 0.547 1.663 1.02 2.65 1.42 0.98 0.4 1.993 0.807 3.04 1.22 1.04 0.413 2.053 0.87 3.04 1.37 0.98 0.493 1.863 1.103 2.65 1.83 0.78 0.72 1.407 1.603 1.88 2.65 0.467 1.04 0.7 2.307 0.7 3.8zM40.8 0h-2.74c-0.913 0-1.77-0.17-2.57-0.51-0.807-0.347-1.507-0.82-2.1-1.42-0.593-0.6-1.067-1.3-1.42-2.1-0.347-0.793-0.52-1.647-0.52-2.56v0-15.55h-4.5v-2.86h4.5v-6.01l3-0.48v6.49h6.35v2.86h-6.35v15.69c0 0.507 0.093 0.977 0.28 1.41 0.187 0.433 0.443 0.81 0.77 1.13 0.327 0.327 0.71 0.583 1.15 0.77 0.433 0.187 0.903 0.28 1.41 0.28v0h2.74zM63.01 0h-1l-1.66-2.54c-0.68 0.927-1.533 1.663-2.56 2.21-1.027 0.547-2.15 0.82-3.37 0.82v0h-0.76c-1.007 0-1.957-0.193-2.85-0.58-0.9-0.38-1.683-0.903-2.35-1.57-0.667-0.667-1.19-1.447-1.57-2.34-0.387-0.9-0.58-1.853-0.58-2.86v0-18.14h3.01v18.31c0 0.6 0.113 1.167 0.34 1.7 0.227 0.527 0.537 0.987 0.93 1.38 0.387 0.387 0.847 0.693 1.38 0.92 0.527 0.233 1.09 0.35 1.69 0.35v0h2c0.607 0 1.173-0.117 1.7-0.35 0.527-0.227 0.987-0.533 1.38-0.92 0.393-0.393 0.703-0.853 0.93-1.38 0.227-0.533 0.34-1.1 0.34-1.7v0-18.31h3zM85.72 0h-1l-1.66-2.54c-0.687 0.927-1.543 1.663-2.57 2.21-1.02 0.547-2.143 0.82-3.37 0.82v0h-0.75c-1.013 0-1.967-0.193-2.86-0.58-0.893-0.38-1.673-0.903-2.34-1.57-0.667-0.667-1.193-1.447-1.58-2.34-0.38-0.9-0.57-1.853-0.57-2.86v0-11.28c0-1.007 0.19-1.96 0.57-2.86 0.387-0.893 0.913-1.673 1.58-2.34 0.667-0.667 1.447-1.19 2.34-1.57 0.893-0.387 1.847-0.58 2.86-0.58v0h0.75c1.127 0 2.17 0.23 3.13 0.69 0.96 0.453 1.78 1.087 2.46 1.9v0-12.11h3.01zM82.71-6.69v-11.62c0-0.6-0.113-1.167-0.34-1.7-0.227-0.527-0.533-0.987-0.92-1.38-0.393-0.387-0.853-0.693-1.38-0.92-0.533-0.233-1.1-0.35-1.7-0.35v0h-2c-0.607 0-1.173 0.117-1.7 0.35-0.527 0.227-0.987 0.533-1.38 0.92-0.387 0.393-0.697 0.853-0.93 1.38-0.227 0.533-0.34 1.1-0.34 1.7v0 11.62c0 0.6 0.113 1.167 0.34 1.7 0.233 0.527 0.543 0.987 0.93 1.38 0.393 0.387 0.853 0.693 1.38 0.92 0.527 0.233 1.093 0.35 1.7 0.35v0h2c0.6 0 1.167-0.117 1.7-0.35 0.527-0.227 0.987-0.533 1.38-0.92 0.387-0.393 0.693-0.853 0.92-1.38 0.227-0.533 0.34-1.1 0.34-1.7zM95.97-31.01h-3.49v-4h3.49zM95.73 0h-3.01v-25h3.01zM119.43-6.86v0c0 1.007-0.19 1.96-0.57 2.86-0.38 0.893-0.903 1.673-1.57 2.34-0.673 0.667-1.457 1.19-2.35 1.57-0.893 0.387-1.847 0.58-2.86 0.58v0h-2c-1.007 0-1.957-0.193-2.85-0.58-0.9-0.38-1.683-0.903-2.35-1.57-0.667-0.667-1.19-1.447-1.57-2.34-0.387-0.9-0.58-1.853-0.58-2.86v0-11.28c0-1.007 0.193-1.96 0.58-2.86 0.38-0.893 0.903-1.673 1.57-2.34 0.667-0.667 1.45-1.19 2.35-1.57 0.893-0.387 1.843-0.58 2.85-0.58v0h2c1.013 0 1.967 0.193 2.86 0.58 0.893 0.38 1.677 0.903 2.35 1.57 0.667 0.667 1.19 1.447 1.57 2.34 0.38 0.9 0.57 1.853 0.57 2.86v0zM116.43-6.69v-11.62c0-0.6-0.113-1.167-0.34-1.7-0.227-0.527-0.537-0.987-0.93-1.38-0.387-0.387-0.847-0.693-1.38-0.92-0.527-0.233-1.093-0.35-1.7-0.35v0h-2c-0.6 0-1.163 0.117-1.69 0.35-0.533 0.227-0.993 0.533-1.38 0.92-0.393 0.393-0.703 0.853-0.93 1.38-0.227 0.533-0.34 1.1-0.34 1.7v0 11.62c0 0.6 0.113 1.167 0.34 1.7 0.227 0.527 0.537 0.987 0.93 1.38 0.387 0.387 0.847 0.693 1.38 0.92 0.527 0.233 1.09 0.35 1.69 0.35v0h2c0.607 0 1.173-0.117 1.7-0.35 0.533-0.227 0.993-0.533 1.38-0.92 0.393-0.393 0.703-0.853 0.93-1.38 0.227-0.533 0.34-1.1 0.34-1.7zM142.63-6.35v0c0 1.013-0.203 1.937-0.61 2.77-0.407 0.84-0.96 1.56-1.66 2.16-0.7 0.607-1.51 1.077-2.43 1.41-0.92 0.333-1.887 0.5-2.9 0.5v0h-2c-1.007 0-1.97-0.193-2.89-0.58-0.92-0.38-1.727-0.903-2.42-1.57-0.693-0.667-1.247-1.447-1.66-2.34-0.413-0.9-0.62-1.853-0.62-2.86v0-1l3-0.49v1.66c0 0.6 0.127 1.167 0.38 1.7 0.253 0.527 0.59 0.987 1.01 1.38 0.427 0.387 0.917 0.693 1.47 0.92 0.553 0.233 1.13 0.35 1.73 0.35v0h2c0.607 0 1.187-0.09 1.74-0.27 0.553-0.18 1.043-0.437 1.47-0.77 0.433-0.333 0.777-0.737 1.03-1.21 0.253-0.473 0.38-1.01 0.38-1.61v0c0-0.893-0.197-1.627-0.59-2.2-0.387-0.567-0.903-1.043-1.55-1.43-0.64-0.38-1.373-0.697-2.2-0.95-0.82-0.253-1.66-0.507-2.52-0.76-0.867-0.247-1.71-0.533-2.53-0.86-0.82-0.327-1.553-0.753-2.2-1.28-0.64-0.533-1.157-1.197-1.55-1.99-0.387-0.8-0.58-1.793-0.58-2.98v0c0-1.013 0.193-1.937 0.58-2.77 0.393-0.84 0.923-1.56 1.59-2.16 0.667-0.607 1.443-1.077 2.33-1.41 0.887-0.333 1.837-0.5 2.85-0.5v0h1.75c1.013 0 1.967 0.193 2.86 0.58 0.893 0.38 1.673 0.903 2.34 1.57 0.673 0.667 1.2 1.447 1.58 2.34 0.38 0.9 0.57 1.853 0.57 2.86v0 0.1l-3 0.49v-0.76c0-0.6-0.113-1.167-0.34-1.7-0.227-0.527-0.537-0.987-0.93-1.38-0.393-0.387-0.853-0.693-1.38-0.92-0.527-0.233-1.093-0.35-1.7-0.35v0h-1.75c-0.607 0-1.173 0.09-1.7 0.27-0.527 0.18-0.987 0.437-1.38 0.77-0.393 0.333-0.703 0.737-0.93 1.21-0.227 0.473-0.34 1.01-0.34 1.61v0c0 0.867 0.197 1.57 0.59 2.11 0.387 0.547 0.903 1.007 1.55 1.38 0.64 0.373 1.37 0.687 2.19 0.94 0.827 0.253 1.667 0.513 2.52 0.78 0.853 0.273 1.69 0.58 2.51 0.92 0.827 0.34 1.56 0.78 2.2 1.32 0.647 0.533 1.163 1.203 1.55 2.01 0.393 0.807 0.59 1.803 0.59 2.99z" fill="#ffffff" fill-rule="nonzero" stroke="none" stroke-width="1" stroke-linecap="butt" stroke-linejoin="miter" stroke-miterlimit="10" stroke-dasharray="" stroke-dashoffset="0" font-family="none" font-weight="none" font-size="none" text-anchor="none" style="mix-blend-mode: normal" data-fill-palette-color="primary" opacity="1"></path></g></svg></g></svg></g></svg></g></svg></g><g transform="matrix(1,0,0,1,117.09765119999999,244.94272289079908)"><svg viewBox="0 0 161.3246976 77.70801194051057" height="77.70801194051057" width="161.3246976"><g><svg xmlns="http://www.w3.org/2000/svg" xmlns:xlink="http://www.w3.org/1999/xlink" version="1.1" x="0" y="0" viewBox="5 28.3 90.1 43.400000000000006" enable-background="new 0 0 100 100" xml:space="preserve" height="77.70801194051057" width="161.3246976" class="icon-icon-0" data-fill-palette-color="accent" id="icon-0"><g fill="#ffdc00" data-fill-palette-color="accent"><g fill="#ffdc00" data-fill-palette-color="accent"><path fill="#ffdc00" d="M93.9 43.2C93.2 41 92.1 39 90.8 37.1S87.9 33.7 86.1 32.4L85.4 31.9C85.3 31.8 85.2 31.7 85.1 31.7L84.7 31.5C84.2 31.2 83.8 30.9 83.3 30.7 82.3 30.2 81.3 29.7 80.3 29.4 79.3 29 78.3 28.8 77.2 28.6 76.6 28.5 76.1 28.4 75.5 28.4 75.2 28.4 74.9 28.3 74.7 28.3H72.7C72.2 28.3 71.7 28.4 71.2 28.4 70.7 28.5 70.2 28.5 69.7 28.6S68.7 28.8 68.3 28.9C64.5 29.9 61.5 31.7 59.1 33.5 56.7 35.4 54.8 37.3 53.3 39.1 52 40.7 50.9 42.1 50.1 43.4 49.3 42.1 48.2 40.7 46.9 39.1 45.4 37.3 43.5 35.4 41.1 33.5 38.7 31.7 35.7 29.9 31.9 28.9 31.4 28.8 31 28.7 30.5 28.6S29.5 28.5 29 28.4C28.5 28.4 28 28.3 27.5 28.3H25.5C25.2 28.3 24.9 28.4 24.7 28.4 24.1 28.5 23.5 28.5 23 28.6 22 28.8 20.9 29.1 19.9 29.4S17.9 30.2 16.9 30.7C16.4 31 16 31.3 15.5 31.5L15.1 31.7C15 31.8 14.9 31.9 14.8 31.9L14.1 32.4C12.3 33.7 10.7 35.3 9.4 37.1 7.9 39 6.8 41 6.1 43.2S5 47.7 5 50V52.4L5.1 53.4 5.3 54.4C5.3 54.6 5.4 54.7 5.4 54.8L5.5 55.2C5.6 55.8 5.8 56.3 6 56.9 6.8 59 7.9 61 9.2 62.9S12.1 66.3 13.9 67.6L14.6 68.1C14.7 68.2 14.8 68.3 14.9 68.3L15.3 68.5C15.8 68.8 16.2 69.1 16.7 69.3 17.7 69.8 18.7 70.3 19.7 70.6 20.7 71 21.7 71.2 22.8 71.4 23.3 71.5 23.8 71.6 24.3 71.6 24.6 71.6 24.8 71.7 25.1 71.7H27.6C28 71.7 28.4 71.6 28.8 71.6 29.4 71.5 29.9 71.5 30.5 71.4 31 71.3 31.5 71.2 31.9 71.1 35.7 70.1 38.7 68.3 41.1 66.5 43.5 64.6 45.4 62.7 46.9 60.9 48.2 59.3 49.3 57.9 50.1 56.6 50.9 57.9 52 59.3 53.3 60.9 54.8 62.7 56.7 64.6 59.1 66.5 61.5 68.3 64.5 70.1 68.3 71.1 68.8 71.2 69.2 71.3 69.7 71.4 70.3 71.5 70.8 71.6 71.4 71.6 71.8 71.6 72.2 71.7 72.6 71.7H75.1C75.4 71.7 75.6 71.6 75.9 71.6 76.4 71.5 76.9 71.5 77.4 71.4 78.4 71.2 79.5 70.9 80.5 70.6S82.5 69.8 83.5 69.3C84 69 84.4 68.7 84.9 68.5L85.3 68.3C85.4 68.2 85.5 68.1 85.6 68.1L86.3 67.6C88.1 66.3 89.7 64.7 91 62.9S93.4 59 94.1 56.8C94.3 56.3 94.4 55.7 94.6 55.1L94.7 54.7C94.7 54.6 94.8 54.4 94.8 54.3L95 53.3 95.1 52.3V49.9C95 47.7 94.6 45.4 93.9 43.2M44.3 51.8C43.4 52.9 42.2 54.1 40.8 55.5 39.4 56.8 37.7 58.2 35.8 59.4S31.8 61.5 29.7 61.9C29.4 61.9 29.2 62 28.9 62H27 27.2 26.1C26 62 25.8 61.9 25.7 61.9 25.4 61.8 25.1 61.8 24.9 61.7 24.4 61.5 23.8 61.4 23.3 61.2S22.3 60.7 21.7 60.5C21.5 60.3 21.2 60.2 21 60L20.8 59.9C20.7 59.9 20.7 59.8 20.6 59.8L20.3 59.5C19.4 58.8 18.5 57.9 17.9 56.9 17.2 55.9 16.7 54.8 16.3 53.7 16.2 53.4 16.2 53.1 16.1 52.8L16 52.6V52.1C16 52 16 51.9 15.9 51.8V50.2C15.9 49 16.1 47.8 16.4 46.7 16.8 45.6 17.3 44.5 18 43.5S19.5 41.7 20.4 40.9L20.7 40.6C20.8 40.6 20.8 40.5 20.9 40.5L21.1 40.4C21.3 40.2 21.6 40.1 21.8 39.9 22.3 39.7 22.8 39.3 23.4 39.2 23.9 39 24.5 38.8 25 38.7 25.2 38.6 25.4 38.6 25.7 38.6 25.8 38.6 25.9 38.5 26 38.5H28.3C28.6 38.5 28.8 38.5 29.1 38.6 29.4 38.6 29.6 38.7 29.9 38.7 32 39.1 34.1 40 36 41.2S39.6 43.7 41 45.1C42.4 46.4 43.6 47.7 44.5 48.8 45.1 49.5 45.6 50.1 46 50.6 45.4 50.5 44.9 51.1 44.3 51.8M84.3 50.1V51.6C84.3 51.7 84.3 51.8 84.2 51.9V52.4L84 52.7C83.9 53 83.9 53.3 83.8 53.6 83.4 54.7 82.9 55.8 82.2 56.8S80.7 58.6 79.8 59.4L79.5 59.7C79.4 59.7 79.4 59.8 79.3 59.8L79.1 59.9C78.9 60.1 78.6 60.2 78.4 60.4 77.9 60.6 77.4 61 76.8 61.1 76.3 61.3 75.7 61.5 75.2 61.6 74.9 61.7 74.6 61.7 74.4 61.8 74.3 61.8 74.1 61.9 74 61.9H72.9 73.1 71.2C70.9 61.9 70.7 61.8 70.4 61.8 68.3 61.4 66.2 60.5 64.3 59.3S60.7 56.8 59.3 55.4C57.9 54.1 56.7 52.8 55.8 51.7 55.2 51 54.7 50.4 54.3 50 54.7 49.5 55.2 48.9 55.8 48.2 56.7 47.1 57.9 45.9 59.3 44.5 60.7 43.2 62.4 41.8 64.3 40.6S68.3 38.5 70.4 38.1C70.7 38.1 70.9 38 71.2 38S71.7 38 72 37.9H74.3C74.4 37.9 74.5 38 74.6 38 74.8 38.1 75 38.1 75.3 38.1 75.8 38.3 76.4 38.4 76.9 38.6S77.9 39.1 78.5 39.3C78.7 39.5 79 39.6 79.2 39.8L79.4 39.9C79.5 39.9 79.5 40 79.6 40L79.9 40.3C80.8 41 81.7 41.9 82.3 42.9 83 43.9 83.5 45 83.9 46.1 84.2 47.2 84.4 48.4 84.4 49.6z" data-fill-palette-color="accent"></path></g></g></svg></g></svg></g><g></g></svg></g><defs></defs></svg><rect width="303.0290448621419" height="247.2" fill="none" stroke="none" visibility="hidden"></rect></g></svg></g></svg>